# xmcd
#
# Track frame offsets:
#	150
#	14415
#	25655
#	43960
#	59200
#	74620
#	95852
#	108410
#	135897
#	150397
#	167247
#	187072
#
# Disc length: 2684 seconds
#
# Revision: 0
# Processed by: cddbd v1.5PL3 Copyright (c) Steve Scherf et al.
# Submitted via: dBpowerAMP V4.0
#
DISCID=ac0a7a0c
DTITLE=The Independents - "Their Golden Classics"
DYEAR=1900
DGENRE=R&B
TTITLE0=Leaving Me
TTITLE1=I Found Love On  A Rainy Day
TTITLE2=The First Time We Met
TTITLE3=I Just Want To Be There
TTITLE4=It`s All Over
TTITLE5=Let This Be A Lesson To You
TTITLE6=No Wind No RainTrack07
TTITLE7=Just As Long As You Need Me
TTITLE8=Sara Lee
TTITLE9=Baby I`ve Been Missing You
TTITLE10=Couldn`t Hear Nobody Say
TTITLE11=Arise and Shine
EXTD=
EXTT0=
EXTT1=
EXTT2=
EXTT3=
EXTT4=
EXTT5=
EXTT6=
EXTT7=
EXTT8=
EXTT9=
EXTT10=
EXTT11=
PLAYORDER=
